<svg width="800" height="600" xmlns="http://www.w3.org/2000/svg">

 <g>
  <title>Layer 1</title>
  <g stroke="null" transform="rotate(-90.0551 400 300)">
   <path stroke="null" fill="#303C42" d="m400.00101,428.00503c-2.656,0 -5.313,-0.99 -7.375,-2.958l-245.334,-234.667c-4.25,-4.073 -4.406,-10.823 -0.333,-15.083c4.063,-4.26 10.812,-4.427 15.083,-0.333l237.958,227.615l237.958,-227.615c4.281,-4.073 11.021,-3.906 15.083,0.333c4.073,4.26 3.917,11.01 -0.333,15.083l-245.332,234.667c-2.063,1.969 -4.719,2.958 -7.375,2.958z"/>
   <path stroke="null" fill=" rgb(107, 94, 83)" d="m400.00101,428.00503c-2.656,0 -5.313,-0.99 -7.375,-2.958l-245.334,-234.667c-4.25,-4.073 -4.406,-10.823 -0.333,-15.083c4.063,-4.26 10.812,-4.427 15.083,-0.333l237.958,227.615l237.958,-227.615c4.281,-4.073 11.021,-3.906 15.083,0.333c4.073,4.26 3.917,11.01 -0.333,15.083l-245.332,234.667c-2.063,1.969 -4.719,2.958 -7.375,2.958z"/>
  </g>
 </g>
</svg>