<svg width="539" height="376" xmlns="http://www.w3.org/2000/svg" xml:space="preserve" version="1.1">
 <g id="Layer_1">
  <title>Layer 1</title>
  <g id="svg_1">
   <g id="svg_2">
    <g id="svg_5" stroke="#000000" stroke-width="15">
     <path id="svg_11" d="m445.2382,225.73785c-0.81353,0 -1.62736,-0.21393 -2.25895,-0.63918l-75.14532,-50.70858c-1.30177,-0.88013 -1.34955,-2.33872 -0.102,-3.25925c1.24449,-0.92053 3.3117,-0.95662 4.61989,-0.07196l72.88606,49.18473l72.88606,-49.18473c1.31126,-0.88013 3.37571,-0.84404 4.61989,0.07196c1.24755,0.92053 1.19977,2.37912 -0.102,3.25925l-75.1447,50.70858c-0.63189,0.42548 -1.44542,0.63918 -2.25895,0.63918l0.00002,0z"/>
     <g id="svg_6">
      <g id="svg_7">
       <g id="svg_8">
        <path fill-rule="evenodd" clip-rule="evenodd" d="m277.13,114.10677c0,52.57249 -42.62011,95.19261 -95.19261,95.19261c-52.57249,0 -95.19261,-42.62011 -95.19261,-95.19261c0,-52.57344 42.62011,-95.19261 95.19261,-95.19261c25.24748,0 49.4597,10.02923 67.31071,27.88118c17.85338,17.85218 27.8819,42.06464 27.8819,67.31142l0,0.00001z" stroke="#000000" stroke-width="20" stroke-linecap="round" stroke-linejoin="round" id="svg_10" fill="none"/>
        <path d="m15.35036,352.08586c102.04336,-63.28167 231.13,-63.28167 333.17407,0" stroke="#000000" stroke-width="20" stroke-linecap="round" id="svg_9" fill="none"/>
       </g>
      </g>
     </g>
    </g>
   </g>
  </g>
 </g>

</svg>